<svg width="662" height="512" xmlns="http://www.w3.org/2000/svg">

 <g>
  <g stroke="null" id="svg_1">
   <polygon stroke="null" id="svg_2" points="176.3916473388672,82.0202865600586 176.38880157470703,82.0202865600586 160.9442367553711,75.7601432800293 145.5,69.5 130.05575561523438,75.7601432800293 114.61135482788086,82.0202865600586 114.60835266113281,82.0202865600586 114.60835266113281,89.29952239990234 176.3916473388672,89.29952239990234 " fill="#020201"/>
   <path stroke="null" id="svg_3" d="m120.691873,115.94153c-0.916321,0 -1.659142,0.684394 -1.659142,1.52864s0.742822,1.52864 1.659142,1.52864l9.796839,0c0.916321,0 1.659142,-0.684394 1.659142,-1.52864s-0.742822,-1.52864 -1.659142,-1.52864l-0.553047,0l0,-21.83771l0.553047,0c0.916321,0 1.659142,-0.684394 1.659142,-1.52864s-0.742822,-1.52864 -1.659142,-1.52864l-9.796839,0c-0.916321,0 -1.659142,0.684394 -1.659142,1.52864s0.742822,1.52864 1.659142,1.52864l0.553047,0l0,21.83771l-0.553047,0z" fill="#020201"/>
   <path stroke="null" id="svg_4" d="m140.601579,115.94153c-0.916321,0 -1.659142,0.684394 -1.659142,1.52864s0.742822,1.52864 1.659142,1.52864l9.796839,0c0.916321,0 1.659142,-0.684394 1.659142,-1.52864s-0.742822,-1.52864 -1.659142,-1.52864l-0.553047,0l0,-21.83771l0.553047,0c0.916321,0 1.659142,-0.684394 1.659142,-1.52864s-0.742822,-1.52864 -1.659142,-1.52864l-9.796839,0c-0.916321,0 -1.659142,0.684394 -1.659142,1.52864s0.742822,1.52864 1.659142,1.52864l0.553047,0l0,21.83771l-0.553047,0z" fill="#020201"/>
   <path stroke="null" id="svg_5" d="m160.827312,115.94153c-0.916321,0 -1.659142,0.684394 -1.659142,1.52864s0.742822,1.52864 1.659142,1.52864l9.796839,0c0.916321,0 1.659142,-0.684394 1.659142,-1.52864s-0.742822,-1.52864 -1.659142,-1.52864l-0.553047,0l0,-21.83771l0.553047,0c0.916321,0 1.659142,-0.684394 1.659142,-1.52864s-0.742822,-1.52864 -1.659142,-1.52864l-9.796839,0c-0.916321,0 -1.659142,0.684394 -1.659142,1.52864s0.742822,1.52864 1.659142,1.52864l0.553047,0l0,21.83771l-0.553047,0z" fill="#020201"/>
   <path stroke="null" id="svg_6" d="m114.609932,122.201673l0,0.873508c0,0.803919 0.707427,1.455847 1.580135,1.455847l58.619862,0c0.872551,0 1.580135,-0.651928 1.580135,-1.455847l0,-0.873508c0,-0.803919 -0.707585,-1.455847 -1.580135,-1.455847l-58.619862,0c-0.872709,0 -1.580135,0.651783 -1.580135,1.455847z" fill="#020201"/>
   <path stroke="null" id="svg_7" d="m178.919862,126.278046l-66.839726,0c-0.872709,0 -1.580135,0.651928 -1.580135,1.455847l0,1.310263c0,0.803919 0.707427,1.455847 1.580135,1.455847l66.839726,0c0.872551,0 1.580135,-0.651928 1.580135,-1.455847l0,-1.310263c0,-0.804064 -0.707427,-1.455847 -1.580135,-1.455847z" fill="#020201"/>
  </g>
  <g stroke="null" id="svg_21">
   <polygon stroke="null" id="svg_15" points="220.3916473388672,189.02029418945312 220.38880920410156,189.02029418945312 204.94424438476562,182.7601318359375 189.5,176.5 174.05575561523438,182.7601318359375 158.61135864257812,189.02029418945312 158.6083526611328,189.02029418945312 158.6083526611328,196.29953002929688 220.3916473388672,196.29953002929688 " fill="#020201"/>
   <path stroke="null" id="svg_16" d="m164.691873,222.94153c-0.91632,0 -1.659142,0.684393 -1.659142,1.528639s0.742822,1.52864 1.659142,1.52864l9.796839,0c0.916321,0 1.659143,-0.684394 1.659143,-1.52864s-0.742822,-1.528639 -1.659143,-1.528639l-0.553047,0l0,-21.83771l0.553047,0c0.916321,0 1.659143,-0.684394 1.659143,-1.52864s-0.742822,-1.52864 -1.659143,-1.52864l-9.796839,0c-0.91632,0 -1.659142,0.684394 -1.659142,1.52864s0.742822,1.52864 1.659142,1.52864l0.553048,0l0,21.83771l-0.553048,0z" fill="#020201"/>
   <path stroke="null" id="svg_17" d="m184.601579,222.94153c-0.916321,0 -1.659142,0.684393 -1.659142,1.528639s0.742821,1.52864 1.659142,1.52864l9.796839,0c0.916321,0 1.659142,-0.684394 1.659142,-1.52864s-0.742821,-1.528639 -1.659142,-1.528639l-0.553047,0l0,-21.83771l0.553047,0c0.916321,0 1.659142,-0.684394 1.659142,-1.52864s-0.742821,-1.52864 -1.659142,-1.52864l-9.796839,0c-0.916321,0 -1.659142,0.684394 -1.659142,1.52864s0.742821,1.52864 1.659142,1.52864l0.553047,0l0,21.83771l-0.553047,0z" fill="#020201"/>
   <path stroke="null" id="svg_18" d="m204.827312,222.94153c-0.916321,0 -1.659142,0.684393 -1.659142,1.528639s0.742821,1.52864 1.659142,1.52864l9.796839,0c0.916321,0 1.659142,-0.684394 1.659142,-1.52864s-0.742821,-1.528639 -1.659142,-1.528639l-0.553047,0l0,-21.83771l0.553047,0c0.916321,0 1.659142,-0.684394 1.659142,-1.52864s-0.742821,-1.52864 -1.659142,-1.52864l-9.796839,0c-0.916321,0 -1.659142,0.684394 -1.659142,1.52864s0.742821,1.52864 1.659142,1.52864l0.553047,0l0,21.83771l-0.553047,0z" fill="#020201"/>
   <path stroke="null" id="svg_19" d="m158.609932,229.201673l0,0.873508c0,0.803919 0.707427,1.455848 1.580135,1.455848l58.619863,0c0.87255,0 1.580135,-0.651929 1.580135,-1.455848l0,-0.873508c0,-0.803919 -0.707585,-1.455847 -1.580135,-1.455847l-58.619863,0c-0.872708,0 -1.580135,0.651783 -1.580135,1.455847z" fill="#020201"/>
   <path stroke="null" id="svg_20" d="m222.919862,233.278046l-66.839727,0c-0.872708,0 -1.580135,0.651928 -1.580135,1.455847l0,1.310263c0,0.803918 0.707427,1.455847 1.580135,1.455847l66.839727,0c0.872551,0 1.580135,-0.651929 1.580135,-1.455847l0,-1.310263c0,-0.804065 -0.707426,-1.455847 -1.580135,-1.455847z" fill="#020201"/>
  </g>
  <g stroke="null" id="svg_28">
   <polygon stroke="null" id="svg_22" points="301.39166259765625,305.0202941894531 301.3887939453125,305.0202941894531 285.9442443847656,298.7601318359375 270.5,292.5 255.05575561523438,298.7601318359375 239.61135864257812,305.0202941894531 239.6083526611328,305.0202941894531 239.6083526611328,312.2995300292969 301.39166259765625,312.2995300292969 " fill="#020201"/>
   <path stroke="null" id="svg_23" d="m245.691873,338.94153c-0.91632,0 -1.659142,0.684393 -1.659142,1.528639s0.742822,1.52864 1.659142,1.52864l9.796839,0c0.916321,0 1.659143,-0.684394 1.659143,-1.52864s-0.742822,-1.528639 -1.659143,-1.528639l-0.553047,0l0,-21.83771l0.553047,0c0.916321,0 1.659143,-0.684394 1.659143,-1.52864s-0.742822,-1.52864 -1.659143,-1.52864l-9.796839,0c-0.91632,0 -1.659142,0.684394 -1.659142,1.52864s0.742822,1.52864 1.659142,1.52864l0.553048,0l0,21.83771l-0.553048,0z" fill="#020201"/>
   <path stroke="null" id="svg_24" d="m265.601579,338.94153c-0.916321,0 -1.659142,0.684393 -1.659142,1.528639s0.742821,1.52864 1.659142,1.52864l9.796839,0c0.916321,0 1.659142,-0.684394 1.659142,-1.52864s-0.742821,-1.528639 -1.659142,-1.528639l-0.553047,0l0,-21.83771l0.553047,0c0.916321,0 1.659142,-0.684394 1.659142,-1.52864s-0.742821,-1.52864 -1.659142,-1.52864l-9.796839,0c-0.916321,0 -1.659142,0.684394 -1.659142,1.52864s0.742821,1.52864 1.659142,1.52864l0.553047,0l0,21.83771l-0.553047,0z" fill="#020201"/>
   <path stroke="null" id="svg_25" d="m285.827312,338.94153c-0.916321,0 -1.659142,0.684393 -1.659142,1.528639s0.742821,1.52864 1.659142,1.52864l9.796839,0c0.916321,0 1.659142,-0.684394 1.659142,-1.52864s-0.742821,-1.528639 -1.659142,-1.528639l-0.553047,0l0,-21.83771l0.553047,0c0.916321,0 1.659142,-0.684394 1.659142,-1.52864s-0.742821,-1.52864 -1.659142,-1.52864l-9.796839,0c-0.916321,0 -1.659142,0.684394 -1.659142,1.52864s0.742821,1.52864 1.659142,1.52864l0.553047,0l0,21.83771l-0.553047,0z" fill="#020201"/>
   <path stroke="null" id="svg_26" d="m239.609932,345.201673l0,0.873508c0,0.803919 0.707427,1.455848 1.580135,1.455848l58.619863,0c0.87255,0 1.580135,-0.651929 1.580135,-1.455848l0,-0.873508c0,-0.803919 -0.707585,-1.455847 -1.580135,-1.455847l-58.619863,0c-0.872708,0 -1.580135,0.651783 -1.580135,1.455847z" fill="#020201"/>
   <path stroke="null" id="svg_27" d="m303.919862,349.278046l-66.839727,0c-0.872708,0 -1.580135,0.651928 -1.580135,1.455847l0,1.310263c0,0.803918 0.707427,1.455847 1.580135,1.455847l66.839727,0c0.872551,0 1.580135,-0.651929 1.580135,-1.455847l0,-1.310263c0,-0.804065 -0.707426,-1.455847 -1.580135,-1.455847z" fill="#020201"/>
  </g>
  <g stroke="null" id="svg_35">
   <polygon stroke="null" id="svg_29" points="418.39166259765625,305.0202941894531 418.3887939453125,305.0202941894531 402.9442443847656,298.7601318359375 387.5,292.5 372.0557556152344,298.7601318359375 356.6113586425781,305.0202941894531 356.6083679199219,305.0202941894531 356.6083679199219,312.2995300292969 418.39166259765625,312.2995300292969 " fill="#020201"/>
   <path stroke="null" id="svg_30" d="m362.691873,338.94153c-0.91632,0 -1.659142,0.684393 -1.659142,1.528639s0.742822,1.52864 1.659142,1.52864l9.796839,0c0.916321,0 1.659143,-0.684394 1.659143,-1.52864s-0.742822,-1.528639 -1.659143,-1.528639l-0.553047,0l0,-21.83771l0.553047,0c0.916321,0 1.659143,-0.684394 1.659143,-1.52864s-0.742822,-1.52864 -1.659143,-1.52864l-9.796839,0c-0.91632,0 -1.659142,0.684394 -1.659142,1.52864s0.742822,1.52864 1.659142,1.52864l0.553048,0l0,21.83771l-0.553048,0z" fill="#020201"/>
   <path stroke="null" id="svg_31" d="m382.601579,338.94153c-0.916321,0 -1.659142,0.684393 -1.659142,1.528639s0.742821,1.52864 1.659142,1.52864l9.796839,0c0.916321,0 1.659142,-0.684394 1.659142,-1.52864s-0.742821,-1.528639 -1.659142,-1.528639l-0.553047,0l0,-21.83771l0.553047,0c0.916321,0 1.659142,-0.684394 1.659142,-1.52864s-0.742821,-1.52864 -1.659142,-1.52864l-9.796839,0c-0.916321,0 -1.659142,0.684394 -1.659142,1.52864s0.742821,1.52864 1.659142,1.52864l0.553047,0l0,21.83771l-0.553047,0z" fill="#020201"/>
   <path stroke="null" id="svg_32" d="m402.827312,338.94153c-0.916321,0 -1.659142,0.684393 -1.659142,1.528639s0.742821,1.52864 1.659142,1.52864l9.796839,0c0.916321,0 1.659142,-0.684394 1.659142,-1.52864s-0.742821,-1.528639 -1.659142,-1.528639l-0.553047,0l0,-21.83771l0.553047,0c0.916321,0 1.659142,-0.684394 1.659142,-1.52864s-0.742821,-1.52864 -1.659142,-1.52864l-9.796839,0c-0.916321,0 -1.659142,0.684394 -1.659142,1.52864s0.742821,1.52864 1.659142,1.52864l0.553047,0l0,21.83771l-0.553047,0z" fill="#020201"/>
   <path stroke="null" id="svg_33" d="m356.609932,345.201673l0,0.873508c0,0.803919 0.707427,1.455848 1.580135,1.455848l58.619863,0c0.87255,0 1.580135,-0.651929 1.580135,-1.455848l0,-0.873508c0,-0.803919 -0.707585,-1.455847 -1.580135,-1.455847l-58.619863,0c-0.872708,0 -1.580135,0.651783 -1.580135,1.455847z" fill="#020201"/>
   <path stroke="null" id="svg_34" d="m420.919862,349.278046l-66.839727,0c-0.872708,0 -1.580135,0.651928 -1.580135,1.455847l0,1.310263c0,0.803918 0.707427,1.455847 1.580135,1.455847l66.839727,0c0.872551,0 1.580135,-0.651929 1.580135,-1.455847l0,-1.310263c0,-0.804065 -0.707426,-1.455847 -1.580135,-1.455847z" fill="#020201"/>
  </g>
  <g stroke="null" id="svg_42">
   <polygon stroke="null" id="svg_36" points="499.39166259765625,189.02029418945312 499.3887939453125,189.02029418945312 483.9442443847656,182.76014709472656 468.5,176.5 453.0557556152344,182.76014709472656 437.6113586425781,189.02029418945312 437.6083679199219,189.02029418945312 437.6083679199219,196.29953002929688 499.39166259765625,196.29953002929688 " fill="#020201"/>
   <path stroke="null" id="svg_37" d="m443.691873,222.94153c-0.91632,0 -1.659142,0.684393 -1.659142,1.528639s0.742822,1.52864 1.659142,1.52864l9.796839,0c0.916321,0 1.659143,-0.684394 1.659143,-1.52864s-0.742822,-1.528639 -1.659143,-1.528639l-0.553047,0l0,-21.83771l0.553047,0c0.916321,0 1.659143,-0.684394 1.659143,-1.52864s-0.742822,-1.52864 -1.659143,-1.52864l-9.796839,0c-0.91632,0 -1.659142,0.684394 -1.659142,1.52864s0.742822,1.52864 1.659142,1.52864l0.553048,0l0,21.83771l-0.553048,0z" fill="#020201"/>
   <path stroke="null" id="svg_38" d="m463.601579,222.94153c-0.916321,0 -1.659142,0.684393 -1.659142,1.528639s0.742821,1.52864 1.659142,1.52864l9.796839,0c0.916321,0 1.659142,-0.684394 1.659142,-1.52864s-0.742821,-1.528639 -1.659142,-1.528639l-0.553047,0l0,-21.83771l0.553047,0c0.916321,0 1.659142,-0.684394 1.659142,-1.52864s-0.742821,-1.52864 -1.659142,-1.52864l-9.796839,0c-0.916321,0 -1.659142,0.684394 -1.659142,1.52864s0.742821,1.52864 1.659142,1.52864l0.553047,0l0,21.83771l-0.553047,0z" fill="#020201"/>
   <path stroke="null" id="svg_39" d="m483.827312,222.94153c-0.916321,0 -1.659142,0.684393 -1.659142,1.528639s0.742821,1.52864 1.659142,1.52864l9.796839,0c0.916321,0 1.659142,-0.684394 1.659142,-1.52864s-0.742821,-1.528639 -1.659142,-1.528639l-0.553047,0l0,-21.83771l0.553047,0c0.916321,0 1.659142,-0.684394 1.659142,-1.52864s-0.742821,-1.52864 -1.659142,-1.52864l-9.796839,0c-0.916321,0 -1.659142,0.684394 -1.659142,1.52864s0.742821,1.52864 1.659142,1.52864l0.553047,0l0,21.83771l-0.553047,0z" fill="#020201"/>
   <path stroke="null" id="svg_40" d="m437.609932,229.201673l0,0.873508c0,0.803919 0.707427,1.455848 1.580135,1.455848l58.619863,0c0.87255,0 1.580135,-0.651929 1.580135,-1.455848l0,-0.873508c0,-0.803919 -0.707585,-1.455847 -1.580135,-1.455847l-58.619863,0c-0.872708,0 -1.580135,0.651783 -1.580135,1.455847z" fill="#020201"/>
   <path stroke="null" id="svg_41" d="m501.919862,233.278046l-66.839727,0c-0.872708,0 -1.580135,0.651928 -1.580135,1.455847l0,1.310263c0,0.803918 0.707427,1.455847 1.580135,1.455847l66.839727,0c0.872551,0 1.580135,-0.651929 1.580135,-1.455847l0,-1.310263c0,-0.804065 -0.707426,-1.455847 -1.580135,-1.455847z" fill="#020201"/>
  </g>
  <g stroke="null" id="svg_49">
   <polygon stroke="null" id="svg_43" points="571.3916625976562,82.0202865600586 571.3887939453125,82.0202865600586 555.9442138671875,75.76013946533203 540.5,69.5 525.0557861328125,75.76013946533203 509.6113586425781,82.0202865600586 509.6083679199219,82.0202865600586 509.6083679199219,89.29952239990234 571.3916625976562,89.29952239990234 " fill="#020201"/>
   <path stroke="null" id="svg_44" d="m515.691873,115.94153c-0.91632,0 -1.659142,0.684393 -1.659142,1.528639s0.742822,1.52864 1.659142,1.52864l9.796839,0c0.916321,0 1.659143,-0.684394 1.659143,-1.52864s-0.742822,-1.528639 -1.659143,-1.528639l-0.553047,0l0,-21.83771l0.553047,0c0.916321,0 1.659143,-0.684394 1.659143,-1.52864s-0.742822,-1.52864 -1.659143,-1.52864l-9.796839,0c-0.91632,0 -1.659142,0.684394 -1.659142,1.52864s0.742822,1.52864 1.659142,1.52864l0.553048,0l0,21.83771l-0.553048,0z" fill="#020201"/>
   <path stroke="null" id="svg_45" d="m535.601579,115.94153c-0.916321,0 -1.659142,0.684393 -1.659142,1.528639s0.742821,1.52864 1.659142,1.52864l9.796839,0c0.916321,0 1.659142,-0.684394 1.659142,-1.52864s-0.742821,-1.528639 -1.659142,-1.528639l-0.553047,0l0,-21.83771l0.553047,0c0.916321,0 1.659142,-0.684394 1.659142,-1.52864s-0.742821,-1.52864 -1.659142,-1.52864l-9.796839,0c-0.916321,0 -1.659142,0.684394 -1.659142,1.52864s0.742821,1.52864 1.659142,1.52864l0.553047,0l0,21.83771l-0.553047,0z" fill="#020201"/>
   <path stroke="null" id="svg_46" d="m555.827312,115.94153c-0.916321,0 -1.659142,0.684393 -1.659142,1.528639s0.742821,1.52864 1.659142,1.52864l9.796839,0c0.916321,0 1.659142,-0.684394 1.659142,-1.52864s-0.742821,-1.528639 -1.659142,-1.528639l-0.553047,0l0,-21.83771l0.553047,0c0.916321,0 1.659142,-0.684394 1.659142,-1.52864s-0.742821,-1.52864 -1.659142,-1.52864l-9.796839,0c-0.916321,0 -1.659142,0.684394 -1.659142,1.52864s0.742821,1.52864 1.659142,1.52864l0.553047,0l0,21.83771l-0.553047,0z" fill="#020201"/>
   <path stroke="null" id="svg_47" d="m509.609932,122.201673l0,0.873508c0,0.803919 0.707427,1.455848 1.580135,1.455848l58.619863,0c0.87255,0 1.580135,-0.651929 1.580135,-1.455848l0,-0.873508c0,-0.803919 -0.707585,-1.455847 -1.580135,-1.455847l-58.619863,0c-0.872708,0 -1.580135,0.651783 -1.580135,1.455847z" fill="#020201"/>
   <path stroke="null" id="svg_48" d="m573.919862,126.278046l-66.839727,0c-0.872708,0 -1.580135,0.651928 -1.580135,1.455847l0,1.310263c0,0.803918 0.707427,1.455847 1.580135,1.455847l66.839727,0c0.872551,0 1.580135,-0.651929 1.580135,-1.455847l0,-1.310263c0,-0.804065 -0.707426,-1.455847 -1.580135,-1.455847z" fill="#020201"/>
  </g>
  <text xml:space="preserve" text-anchor="start" font-family="Helvetica, Arial, sans-serif" font-size="13" id="svg_50" y="111.5" x="61.5" fill-opacity="null" stroke-opacity="null" stroke-width="0" stroke="#000" fill="#000000">Amex</text>
  <text xml:space="preserve" text-anchor="start" font-family="Helvetica, Arial, sans-serif" font-size="13" id="svg_51" y="214.5" x="101.5" fill-opacity="null" stroke-opacity="null" stroke-width="0" stroke="#000" fill="#000000">ACH</text>
  <line stroke="#000" stroke-linecap="null" stroke-linejoin="null" id="svg_52" y2="180.500002" x2="174.500003" y1="130.5" x1="141.5" fill-opacity="null" stroke-opacity="null" stroke-width="null" fill="none"/>
  <line stroke="#000" stroke-linecap="null" stroke-linejoin="null" id="svg_53" y2="301.5" x2="253.5" y1="239.500001" x1="211.499997" fill-opacity="null" stroke-opacity="null" stroke-width="null" fill="none"/>
  <line stroke="#000" stroke-linecap="null" stroke-linejoin="null" id="svg_54" y2="238.499999" x2="454.499999" y1="297.5" x1="402.5" fill-opacity="null" stroke-opacity="null" stroke-width="null" fill="none"/>
  <line stroke="#000" stroke-linecap="null" stroke-linejoin="null" id="svg_55" y2="131.499998" x2="536.499999" y1="184.499997" x1="494.499999" fill-opacity="null" stroke-opacity="null" stroke-width="null" fill="none"/>
  <text xml:space="preserve" text-anchor="start" font-family="Helvetica, Arial, sans-serif" font-size="13" id="svg_56" y="210.5" x="518.5" fill-opacity="null" stroke-opacity="null" stroke-width="0" stroke="#000" fill="#000000">ACH</text>
  <rect stroke-dasharray="5,5" id="svg_57" height="100" width="362" y="280.5" x="151.5" fill-opacity="null" stroke-opacity="null" stroke-width="null" stroke="#000" fill="none"/>
  <text style="cursor: move;" xml:space="preserve" text-anchor="start" font-family="Helvetica, Arial, sans-serif" font-size="13" id="svg_59" y="372.5" x="269.5" fill-opacity="null" stroke-opacity="null" stroke-width="0" stroke="#000" fill="#000000">Corresponding banking</text>
  <text style="cursor: move;" xml:space="preserve" text-anchor="start" font-family="Helvetica, Arial, sans-serif" font-size="13" id="svg_60" y="105.5" x="587.5" fill-opacity="null" stroke-opacity="null" stroke-width="0" stroke="#000" fill="#000000">Partner</text>
 </g>
</svg>